<svg xmlns="http://www.w3.org/2000/svg" xmlns:xlink="http://www.w3.org/1999/xlink" viewBox="0,0,256,256" width="50px" height="50px"><g fill="#339af0" fill-rule="nonzero" stroke="none" stroke-width="1" stroke-linecap="butt" stroke-linejoin="miter" stroke-miterlimit="10" stroke-dasharray="" stroke-dashoffset="0" font-family="none" font-weight="none" font-size="none" text-anchor="none" style="mix-blend-mode: normal"><g transform="scale(5.12,5.12)"><path d="M11.98633,0c-0.17125,0.002 -0.34114,0.04867 -0.49414,0.13867c-0.304,0.18 -0.49219,0.50733 -0.49219,0.86133v12.35352c0,0.384 0.21941,0.73634 0.56641,0.90234l18,8.64453c0.137,0.066 0.28659,0.09961 0.43359,0.09961c0.194,0 0.38769,-0.05697 0.55469,-0.16797l9,-6c0.29,-0.193 0.45836,-0.52405 0.44336,-0.87305c-0.014,-0.348 -0.20867,-0.66303 -0.51367,-0.83203l-27,-15c-0.155,-0.086 -0.3268,-0.12895 -0.49805,-0.12695zM12.02539,17c-0.17538,-0.0045 -0.35077,0.03845 -0.50977,0.12695c-0.318,0.176 -0.51562,0.50905 -0.51562,0.87305v30.99805c0,0.76 0.81347,1.24391 1.48047,0.87891l28.01563,-16.00977c0.312,-0.178 0.50391,-0.50819 0.50391,-0.86719v-13c0,-0.408 -0.247,-0.77473 -0.625,-0.92773c-0.38,-0.152 -0.8127,-0.06058 -1.0957,0.23242l-26.2793,27.69531l7.95508,-23.70508c0.133,-0.433 -0.04178,-0.90258 -0.42578,-1.14258l-8,-5c-0.1545,-0.0965 -0.32853,-0.14784 -0.50391,-0.15234z"></path></g></g></svg>