<svg xmlns="http://www.w3.org/2000/svg" xmlns:xlink="http://www.w3.org/1999/xlink" viewBox="0,0,256,256" width="50px" height="50px"><g fill="none" fill-rule="nonzero" stroke="none" stroke-width="1" stroke-linecap="butt" stroke-linejoin="miter" stroke-miterlimit="10" stroke-dasharray="" stroke-dashoffset="0" font-family="none" font-weight="none" font-size="none" text-anchor="none" style="mix-blend-mode: normal"><g transform="scale(3.2,3.2)"><path d="M34,77.5c-0.994,0 -1.942,-0.424 -2.603,-1.162l-29.617,-33.041c-1.711,-1.897 -1.708,-4.76 0.007,-6.66l29.609,-33.033c0.628,-0.702 1.577,-1.104 2.604,-1.104c1.027,0 1.976,0.402 2.603,1.103l29.617,33.041c1.711,1.897 1.708,4.76 -0.007,6.66l-29.609,33.033c-0.662,0.739 -1.61,1.163 -2.604,1.163z" fill="#297abe"></path><path d="M34,3c0.885,0 1.698,0.341 2.231,0.937l29.618,33.042c1.538,1.706 1.534,4.281 -0.01,5.993l-29.608,33.032c-0.567,0.633 -1.38,0.996 -2.231,0.996c-0.851,0 -1.664,-0.363 -2.231,-0.997l-29.618,-33.041c-1.538,-1.706 -1.534,-4.281 0.01,-5.993l29.608,-33.032c0.533,-0.596 1.346,-0.937 2.231,-0.937M34,2c-1.109,0 -2.218,0.423 -2.976,1.27l-29.608,33.031c-1.886,2.091 -1.886,5.246 -0.008,7.33l29.616,33.04c0.758,0.846 1.839,1.329 2.976,1.329c1.137,0 2.218,-0.483 2.976,-1.329l29.608,-33.032c1.886,-2.091 1.886,-5.246 0.008,-7.33l-29.616,-33.039c-0.758,-0.847 -1.867,-1.27 -2.976,-1.27z" fill="#ffffff"></path><path d="M45.996,77.5c-0.993,0 -1.942,-0.424 -2.604,-1.162l-13.5,-15.045c-1.197,-1.333 -1.197,-3.343 0,-4.676l12.646,-14.094c1.29,-1.438 1.289,-3.609 -0.002,-5.049l-12.644,-14.091c-1.197,-1.333 -1.197,-3.343 0,-4.676l13.5,-15.045c0.662,-0.738 1.611,-1.162 2.604,-1.162c0.993,0 1.942,0.424 2.604,1.162l29.621,33.014c1.702,1.896 1.702,4.755 -0.002,6.65l-29.618,33.012c-0.663,0.738 -1.612,1.162 -2.605,1.162z" fill="#339af0"></path><path d="M45.996,3c0.851,0 1.665,0.363 2.232,0.996l29.622,33.014c1.531,1.705 1.531,4.277 -0.002,5.982l-29.62,33.012c-0.567,0.633 -1.38,0.996 -2.232,0.996c-0.851,0 -1.665,-0.363 -2.232,-0.996l-13.5,-15.045c-1.026,-1.142 -1.026,-2.865 0,-4.008l12.647,-14.094c1.461,-1.629 1.46,-4.086 -0.002,-5.716l-12.645,-14.093c-1.026,-1.142 -1.026,-2.865 0,-4.008l13.5,-15.045c0.567,-0.632 1.381,-0.995 2.232,-0.995M45.996,2c-1.137,0 -2.219,0.482 -2.977,1.328l-13.5,15.045c-1.365,1.52 -1.365,3.824 0,5.344l12.645,14.092c1.121,1.25 1.121,3.133 0.002,4.381l-12.646,14.093c-1.365,1.52 -1.365,3.824 0,5.344l13.5,15.045c0.758,0.846 1.84,1.328 2.976,1.328c1.136,0 2.219,-0.482 2.977,-1.328l29.619,-33.012c1.875,-2.086 1.877,-5.23 0.002,-7.318l-29.621,-33.014c-0.758,-0.846 -1.84,-1.328 -2.977,-1.328z" fill="#ffffff"></path><path d="M64,57.396c-0.992,0 -1.942,-0.424 -2.605,-1.162l-11.524,-12.842v-0.015l-0.146,-0.147c-1.643,-1.833 -1.643,-4.626 0.017,-6.477l11.652,-12.986c0.663,-0.738 1.613,-1.162 2.605,-1.162c0.992,0 1.942,0.424 2.605,1.162l11.651,12.984c1.659,1.853 1.66,4.646 0.001,6.496l-11.651,12.986c-0.663,0.739 -1.613,1.163 -2.605,1.163z" fill="#84c4fa"></path><path d="M64,23.104c0.851,0 1.665,0.363 2.233,0.996l11.651,12.984c1.489,1.662 1.49,4.168 0.002,5.829l-11.652,12.986c-0.569,0.633 -1.383,0.996 -2.234,0.996c-0.851,0 -1.665,-0.363 -2.233,-0.996l-11.397,-12.7v-0.001l-0.255,-0.285c-1.489,-1.661 -1.489,-4.166 0,-5.827l11.652,-12.986c0.568,-0.632 1.382,-0.996 2.233,-0.996M64,22.104c-1.136,0 -2.219,0.483 -2.978,1.328l-11.652,12.987c-1.83,2.042 -1.83,5.12 0,7.162c0.001,0.001 0.001,0.001 0.001,0.002l11.651,12.984c0.759,0.845 1.842,1.328 2.978,1.328c1.136,0 2.219,-0.483 2.978,-1.328l11.652,-12.986c1.83,-2.042 1.83,-5.12 -0.001,-7.164l-11.651,-12.984c-0.759,-0.845 -1.842,-1.329 -2.978,-1.329z" fill="#ffffff"></path></g></g></svg>